<?xml version="1.0" standalone="no"?>
<!DOCTYPE svg PUBLIC "-//W3C//DTD SVG 20010904//EN"
 "http://www.w3.org/TR/2001/REC-SVG-20010904/DTD/svg10.dtd">
<svg version="1.0" xmlns="http://www.w3.org/2000/svg"
 width="700.000000pt" height="700.000000pt" viewBox="0 0 700.000000 700.000000"
 preserveAspectRatio="xMidYMid meet">
<metadata>
Created by potrace 1.11, written by Peter Selinger 2001-2013
</metadata>
<g transform="translate(0.000000,700.000000) scale(0.100000,-0.100000)"
fill="#000000" stroke="none">
<path d="M2840 6920 c-736 -41 -1431 -361 -1955 -901 -147 -151 -230 -253
-343 -424 -224 -336 -384 -738 -451 -1135 -39 -233 -43 -319 -39 -1030 4 -645
6 -693 26 -820 107 -666 398 -1233 868 -1691 523 -509 1183 -798 1912 -839
229 -12 1055 -12 1284 0 728 41 1390 331 1912 839 471 460 762 1027 869 1696
21 136 22 162 22 885 0 723 -1 749 -22 885 -86 535 -291 1007 -615 1417 -97
123 -350 378 -468 472 -116 92 -343 241 -470 309 -379 200 -789 312 -1235 337
-195 11 -1093 11 -1295 0z m2020 -1252 c71 -16 181 -74 238 -124 55 -49 116
-132 145 -199 65 -149 61 -338 -9 -477 -14 -28 -165 -259 -335 -514 -170 -255
-309 -466 -309 -469 0 -2 258 -6 573 -7 570 -3 572 -3 634 -27 166 -61 296
-192 354 -357 30 -82 37 -228 15 -313 -51 -200 -202 -357 -401 -418 -57 -17
-123 -18 -1180 -18 l-1120 0 -80 28 c-241 82 -394 293 -395 542 0 83 47 280
85 355 42 83 1183 1791 1228 1839 141 147 352 208 557 159z"/>
</g>
</svg>
