<svg width="290" height="287" viewBox="0 0 290 287" fill="none" xmlns="http://www.w3.org/2000/svg">
<path d="M2.5 124.409C2.5 57.0797 57.064 2.5 124.37 2.5H164.951C232.257 2.5 286.821 57.0798 286.821 124.409V162.466C286.821 229.795 232.257 284.375 164.951 284.375H124.37C57.0639 284.375 2.5 229.795 2.5 162.466V124.409ZM217.968 90.3989C226.078 78.218 222.685 61.83 210.418 53.8001C198.163 45.7785 181.665 49.1188 173.563 61.2869L126.336 132.224C124.194 135.441 122.852 138.958 122.267 142.541C121.271 145.315 120.729 148.3 120.729 151.406C120.729 166.01 132.663 177.812 147.339 177.812L233.064 177.812C247.74 177.812 259.674 166.01 259.674 151.406C259.674 136.803 247.74 125 233.064 125H194.931L217.968 90.3989Z" fill="#3D2D6B" stroke="#3D2D6B" stroke-width="5"/>
</svg>
