<svg width="1168" height="595" viewBox="0 0 1168 595" fill="none" xmlns="http://www.w3.org/2000/svg">
<path fill-rule="evenodd" clip-rule="evenodd" d="M151.159 0C82.4716 0 26.7891 55.6997 26.7891 124.409V162.466C26.7891 231.175 82.4715 286.875 151.159 286.875H191.74C260.428 286.875 316.11 231.175 316.11 162.466V124.409C316.11 55.6999 260.428 0 191.74 0H151.159ZM242.676 89.0135C250.012 77.9948 246.95 63.1657 235.838 55.8918C224.725 48.618 209.769 51.6537 202.434 62.6724L155.206 133.61C153.22 136.592 151.996 139.855 151.487 143.171C150.537 145.738 150.018 148.512 150.018 151.406C150.018 164.609 160.813 175.312 174.128 175.312L259.853 175.312C273.169 175.312 283.963 164.609 283.963 151.406C283.963 138.203 273.169 127.5 259.853 127.5H217.053L242.676 89.0135Z" fill="#2825A6"/>
<path d="M72.9512 440.342C69.0079 440.342 65.311 440.994 61.8606 442.297C58.5744 443.601 55.6169 445.556 52.988 448.162C50.5235 450.769 48.5518 453.946 47.073 457.693C45.5943 461.44 44.8549 465.757 44.8549 470.645C44.8549 475.533 45.5943 479.85 47.073 483.597C48.7161 487.181 50.7699 490.276 53.2345 492.883C55.8634 495.49 58.9031 497.445 62.3535 498.748C65.8039 500.051 69.5008 500.703 73.4441 500.703C80.6736 500.703 86.3421 498.83 90.4498 495.083C94.7217 491.335 97.5149 487.181 98.8294 482.619L131.855 492.639C130.54 498.015 128.24 503.228 124.954 508.279C121.832 513.329 117.807 517.809 112.878 521.719C107.948 525.629 102.198 528.806 95.6254 531.25C89.0532 533.694 81.6594 534.916 73.4441 534.916C64.243 534.916 55.6169 533.368 47.566 530.272C39.6793 527.014 32.7784 522.534 26.8634 516.832C20.9484 511.13 16.2657 504.369 12.8153 496.549C9.36486 488.729 7.63965 480.094 7.63965 470.645C7.63965 461.196 9.28271 452.561 12.5688 444.741C16.0192 436.758 20.6198 429.916 26.3705 424.214C32.2855 418.512 39.1042 414.113 46.8266 411.018C54.7133 407.759 63.175 406.13 72.2118 406.13C80.5914 406.13 88.1495 407.352 94.886 409.796C101.623 412.076 107.455 415.172 112.385 419.082C117.314 422.992 121.339 427.554 124.461 432.767C127.583 437.817 129.801 443.031 131.115 448.407L97.5971 458.426C96.9399 456.145 95.954 453.946 94.6396 451.828C93.3251 449.547 91.6821 447.592 89.7104 445.963C87.7387 444.171 85.3563 442.786 82.5631 441.809C79.7699 440.831 76.5659 440.342 72.9512 440.342Z" fill="#2825A6"/>
<path d="M149.735 531.25V354.322H187.196V531.25H149.735Z" fill="#2825A6"/>
<path d="M206.728 497.771C206.728 492.394 207.632 487.588 209.439 483.353C211.411 479.117 214.04 475.532 217.326 472.6C220.612 469.505 224.391 467.061 228.663 465.269C233.099 463.314 237.864 461.929 242.958 461.114L271.793 456.716C275.079 456.227 277.38 455.249 278.694 453.783C280.009 452.317 280.666 450.525 280.666 448.407C280.666 444.823 279.105 441.727 275.983 439.121C273.026 436.514 268.589 435.211 262.674 435.211C256.102 435.211 251.009 437.084 247.394 440.831C243.943 444.415 242.054 448.488 241.725 453.05L209.193 446.452C209.521 442.053 210.836 437.491 213.136 432.767C215.436 428.042 218.723 423.725 222.994 419.815C227.431 415.905 232.935 412.647 239.507 410.04C246.079 407.433 253.884 406.13 262.921 406.13C272.779 406.13 281.159 407.433 288.06 410.04C294.96 412.484 300.547 415.905 304.819 420.304C309.255 424.54 312.377 429.509 314.184 435.211C316.156 440.913 317.142 446.859 317.142 453.05V512.433C317.142 517.158 317.306 521.312 317.635 524.896C318.128 528.48 318.456 530.598 318.62 531.25H284.856C284.691 530.761 284.445 529.458 284.116 527.34C283.788 525.059 283.623 521.801 283.623 517.565C280.337 522.778 275.819 526.933 270.068 530.028C264.317 533.124 257.334 534.671 249.119 534.671C242.383 534.671 236.385 533.612 231.128 531.494C225.87 529.539 221.434 526.851 217.819 523.43C214.204 520.009 211.411 516.099 209.439 511.7C207.632 507.301 206.728 502.658 206.728 497.771ZM258.238 507.79C261.031 507.79 263.742 507.464 266.371 506.813C269.164 505.998 271.547 504.695 273.519 502.903C275.654 500.948 277.38 498.422 278.694 495.327C280.009 492.231 280.666 488.321 280.666 483.597V478.221L257.499 481.886C253.555 482.538 250.269 483.923 247.64 486.041C245.011 487.996 243.697 491.091 243.697 495.327C243.697 498.585 244.765 501.518 246.901 504.124C249.201 506.568 252.98 507.79 258.238 507.79Z" fill="#2825A6"/>
<path d="M365.423 491.173C365.751 495.408 367.394 499.237 370.352 502.658C373.474 505.916 378.238 507.546 384.646 507.546C389.411 507.546 392.944 506.487 395.244 504.369C397.709 502.251 398.941 499.807 398.941 497.038C398.941 494.757 398.037 492.802 396.23 491.173C394.587 489.38 391.465 487.996 386.864 487.018L372.816 483.841C366.244 482.375 360.658 480.42 356.057 477.976C351.457 475.533 347.678 472.681 344.72 469.423C341.763 466.165 339.627 462.581 338.312 458.671C336.998 454.761 336.34 450.688 336.34 446.452C336.34 440.913 337.491 435.699 339.791 430.812C342.091 425.924 345.295 421.689 349.403 418.104C353.675 414.357 358.686 411.425 364.437 409.307C370.187 407.189 376.513 406.13 383.414 406.13C392.287 406.13 399.762 407.352 405.842 409.796C411.921 412.239 416.85 415.335 420.629 419.082C424.573 422.666 427.448 426.576 429.255 430.812C431.063 434.885 432.131 438.713 432.459 442.297L401.406 447.918C400.913 443.845 399.27 440.343 396.476 437.41C393.848 434.478 389.658 433.011 383.907 433.011C380.292 433.011 377.17 433.989 374.542 435.944C371.913 437.736 370.598 440.261 370.598 443.519C370.598 446.126 371.502 448.163 373.309 449.629C375.117 451.095 377.417 452.072 380.21 452.561L396.476 455.738C409.292 458.345 418.74 463.151 424.819 470.156C431.063 476.999 434.185 484.9 434.185 493.861C434.185 499.074 433.199 504.124 431.227 509.012C429.255 513.899 426.216 518.298 422.108 522.208C418 525.955 412.907 528.969 406.828 531.25C400.748 533.694 393.601 534.916 385.386 534.916C375.692 534.916 367.559 533.612 360.986 531.006C354.578 528.236 349.403 524.896 345.459 520.986C341.516 517.076 338.559 512.922 336.587 508.523C334.78 504.124 333.794 500.214 333.629 496.793L365.423 491.173Z" fill="#2825A6"/>
<path d="M475.299 491.173C475.627 495.408 477.271 499.237 480.228 502.658C483.35 505.916 488.115 507.546 494.523 507.546C499.288 507.546 502.82 506.487 505.12 504.369C507.585 502.251 508.817 499.807 508.817 497.038C508.817 494.757 507.914 492.802 506.106 491.173C504.463 489.38 501.341 487.996 496.741 487.018L482.693 483.841C476.12 482.375 470.534 480.42 465.933 477.976C461.333 475.533 457.554 472.681 454.596 469.423C451.639 466.165 449.503 462.581 448.188 458.671C446.874 454.761 446.217 450.688 446.217 446.452C446.217 440.913 447.367 435.699 449.667 430.812C451.967 425.924 455.171 421.689 459.279 418.104C463.551 414.357 468.562 411.425 474.313 409.307C480.064 407.189 486.39 406.13 493.29 406.13C502.163 406.13 509.639 407.352 515.718 409.796C521.797 412.239 526.727 415.335 530.506 419.082C534.449 422.666 537.324 426.576 539.132 430.812C540.939 434.885 542.007 438.713 542.336 442.297L511.282 447.918C510.789 443.845 509.146 440.343 506.353 437.41C503.724 434.478 499.534 433.011 493.783 433.011C490.169 433.011 487.047 433.989 484.418 435.944C481.789 437.736 480.474 440.261 480.474 443.519C480.474 446.126 481.378 448.163 483.186 449.629C484.993 451.095 487.293 452.072 490.086 452.561L506.353 455.738C519.169 458.345 528.616 463.151 534.695 470.156C540.939 476.999 544.061 484.9 544.061 493.861C544.061 499.074 543.075 504.124 541.103 509.012C539.132 513.899 536.092 518.298 531.984 522.208C527.877 525.955 522.783 528.969 516.704 531.25C510.625 533.694 503.477 534.916 495.262 534.916C485.568 534.916 477.435 533.612 470.863 531.006C464.455 528.236 459.279 524.896 455.336 520.986C451.392 517.076 448.435 512.922 446.463 508.523C444.656 504.124 443.67 500.214 443.506 496.793L475.299 491.173Z" fill="#2825A6"/>
<path d="M608.342 409.796H632.249V442.297H608.342V487.751C608.342 492.802 609.575 496.223 612.039 498.015C614.504 499.644 617.79 500.459 621.898 500.459C623.869 500.459 625.677 500.377 627.32 500.214C629.127 499.889 630.606 499.563 631.756 499.237V530.028C630.934 530.354 628.963 531.006 625.841 531.983C622.719 532.961 618.201 533.449 612.286 533.449C599.47 533.449 589.447 530.028 582.218 523.186C574.988 516.18 571.373 506.568 571.373 494.349V442.297H549.685V409.796H555.847C562.255 409.796 567.019 407.922 570.141 404.175C573.263 400.428 574.824 395.703 574.824 390.001V374.361H608.342V409.796Z" fill="#2825A6"/>
<path d="M653.868 531.25V409.796H691.33V531.25H653.868ZM650.664 372.651C650.664 369.718 651.239 366.949 652.389 364.342C653.539 361.572 655.1 359.21 657.072 357.255C659.043 355.3 661.344 353.752 663.973 352.612C666.602 351.471 669.395 350.901 672.352 350.901C678.596 350.901 683.854 353.019 688.126 357.255C692.398 361.491 694.533 366.623 694.533 372.651C694.533 378.679 692.398 383.81 688.126 388.046C683.854 392.282 678.596 394.4 672.352 394.4C669.395 394.4 666.602 393.83 663.973 392.689C661.344 391.549 659.043 390.001 657.072 388.046C655.1 386.091 653.539 383.81 652.389 381.204C651.239 378.434 650.664 375.583 650.664 372.651Z" fill="#2825A6"/>
<path d="M719.218 531.25V409.796H754.954V423.725C756.433 421.118 758.487 418.756 761.116 416.638C763.745 414.357 766.62 412.484 769.742 411.018C773.028 409.388 776.396 408.166 779.847 407.352C783.461 406.537 786.912 406.13 790.198 406.13C799.071 406.13 806.546 407.841 812.626 411.262C818.705 414.52 823.306 419.163 826.427 425.191C831.192 418.349 836.614 413.461 842.694 410.529C848.773 407.596 856.002 406.13 864.382 406.13C870.133 406.13 875.719 407.026 881.141 408.818C886.728 410.447 891.575 413.135 895.682 416.882C899.954 420.63 903.322 425.436 905.787 431.301C908.416 437.166 909.73 444.252 909.73 452.561V531.25H873.501V460.87C873.501 455.168 871.94 450.362 868.818 446.452C865.696 442.379 860.767 440.342 854.031 440.342C847.294 440.342 842.201 442.46 838.75 446.696C835.3 450.932 833.575 455.738 833.575 461.114V531.25H796.606V460.87C796.606 455.168 795.045 450.362 791.923 446.452C788.801 442.379 783.79 440.342 776.889 440.342C770.317 440.342 765.306 442.46 761.855 446.696C758.405 450.932 756.68 455.82 756.68 461.359V531.25H719.218Z" fill="#2825A6"/>
<path d="M1013.83 455.982C1013.66 453.702 1013.09 451.339 1012.1 448.896C1011.28 446.452 1009.88 444.252 1007.91 442.297C1005.94 440.342 1003.39 438.713 1000.27 437.41C997.314 436.107 993.617 435.455 989.181 435.455C985.237 435.455 981.787 436.107 978.829 437.41C975.872 438.713 973.325 440.342 971.189 442.297C969.217 444.252 967.657 446.452 966.506 448.896C965.521 451.339 964.946 453.702 964.781 455.982H1013.83ZM1047.84 496.304C1046.36 501.518 1044.06 506.487 1040.94 511.211C1037.82 515.936 1033.87 520.09 1029.11 523.674C1024.34 527.096 1018.76 529.784 1012.35 531.739C1006.1 533.857 999.121 534.916 991.399 534.916C983.019 534.916 974.968 533.449 967.246 530.517C959.523 527.584 952.705 523.349 946.79 517.809C940.875 512.27 936.192 505.509 932.742 497.526C929.291 489.543 927.566 480.42 927.566 470.156C927.566 460.381 929.209 451.584 932.495 443.764C935.946 435.781 940.464 429.02 946.05 423.481C951.801 417.941 958.373 413.706 965.767 410.773C973.161 407.678 980.801 406.13 988.688 406.13C1007.75 406.13 1022.7 411.588 1033.54 422.503C1044.55 433.419 1050.06 448.733 1050.06 468.446C1050.06 471.052 1049.97 473.578 1049.81 476.021C1049.65 478.302 1049.48 479.605 1049.32 479.931H964.042C964.206 483.353 965.028 486.529 966.506 489.462C968.15 492.231 970.203 494.675 972.668 496.793C975.297 498.911 978.254 500.54 981.54 501.681C984.827 502.821 988.277 503.391 991.892 503.391C998.793 503.391 1004.13 501.925 1007.91 498.993C1011.85 496.06 1014.73 492.231 1016.54 487.507L1047.84 496.304Z" fill="#2825A6"/>
<path d="M1090.87 491.173C1091.2 495.408 1092.84 499.237 1095.8 502.658C1098.92 505.916 1103.68 507.546 1110.09 507.546C1114.86 507.546 1118.39 506.487 1120.69 504.369C1123.15 502.251 1124.39 499.807 1124.39 497.038C1124.39 494.757 1123.48 492.802 1121.68 491.173C1120.03 489.38 1116.91 487.996 1112.31 487.018L1098.26 483.841C1091.69 482.375 1086.1 480.42 1081.5 477.976C1076.9 475.533 1073.12 472.681 1070.17 469.423C1067.21 466.165 1065.07 462.581 1063.76 458.671C1062.44 454.761 1061.79 450.688 1061.79 446.452C1061.79 440.913 1062.94 435.699 1065.24 430.812C1067.54 425.924 1070.74 421.689 1074.85 418.104C1079.12 414.357 1084.13 411.425 1089.88 409.307C1095.63 407.189 1101.96 406.13 1108.86 406.13C1117.73 406.13 1125.21 407.352 1131.29 409.796C1137.37 412.239 1142.3 415.335 1146.07 419.082C1150.02 422.666 1152.89 426.576 1154.7 430.812C1156.51 434.885 1157.58 438.713 1157.9 442.297L1126.85 447.918C1126.36 443.845 1124.71 440.343 1121.92 437.41C1119.29 434.478 1115.1 433.011 1109.35 433.011C1105.74 433.011 1102.62 433.989 1099.99 435.944C1097.36 437.736 1096.04 440.261 1096.04 443.519C1096.04 446.126 1096.95 448.163 1098.75 449.629C1100.56 451.095 1102.86 452.072 1105.66 452.561L1121.92 455.738C1134.74 458.345 1144.19 463.151 1150.26 470.156C1156.51 476.999 1159.63 484.9 1159.63 493.861C1159.63 499.074 1158.64 504.124 1156.67 509.012C1154.7 513.899 1151.66 518.298 1147.55 522.208C1143.45 525.955 1138.35 528.969 1132.27 531.25C1126.19 533.694 1119.05 534.916 1110.83 534.916C1101.14 534.916 1093 533.612 1086.43 531.006C1080.02 528.236 1074.85 524.896 1070.9 520.986C1066.96 517.076 1064 512.922 1062.03 508.523C1060.22 504.124 1059.24 500.214 1059.07 496.793L1090.87 491.173Z" fill="#2825A6"/>
</svg>
