<svg width="218" height="112" viewBox="0 0 218 112" fill="none" xmlns="http://www.w3.org/2000/svg">
<rect x="7.5" y="2.5" width="49" height="49" rx="20.5" fill="#3D2D6B" stroke="#3D2D6B" stroke-width="5"/>
<line x1="32.5" y1="28.5" x2="48.5" y2="28.5" stroke="white" stroke-width="9" stroke-linecap="round" stroke-linejoin="bevel"/>
<line x1="32.7237" y1="27.6292" x2="41.5385" y2="14.2764" stroke="white" stroke-width="9" stroke-linecap="round" stroke-linejoin="bevel"/>
<path d="M13.616 82.888C12.88 82.888 12.19 83.0107 11.546 83.256C10.9327 83.5013 10.3807 83.8693 9.89 84.36C9.43 84.8507 9.062 85.4487 8.786 86.154C8.51 86.8593 8.372 87.672 8.372 88.592C8.372 89.512 8.51 90.3247 8.786 91.03C9.09267 91.7047 9.476 92.2873 9.936 92.778C10.4267 93.2687 10.994 93.6367 11.638 93.882C12.282 94.1273 12.972 94.25 13.708 94.25C15.0573 94.25 16.1153 93.8973 16.882 93.192C17.6793 92.4867 18.2007 91.7047 18.446 90.846L24.61 92.732C24.3647 93.744 23.9353 94.7253 23.322 95.676C22.7393 96.6267 21.988 97.47 21.068 98.206C20.148 98.942 19.0747 99.54 17.848 100C16.6213 100.46 15.2413 100.69 13.708 100.69C11.9907 100.69 10.3807 100.399 8.878 99.816C7.406 99.2027 6.118 98.3593 5.014 97.286C3.91 96.2127 3.036 94.94 2.392 93.468C1.748 91.996 1.426 90.3707 1.426 88.592C1.426 86.8133 1.73267 85.188 2.346 83.716C2.99 82.2133 3.84867 80.9253 4.922 79.852C6.026 78.7787 7.29867 77.9507 8.74 77.368C10.212 76.7547 11.7913 76.448 13.478 76.448C15.042 76.448 16.4527 76.678 17.71 77.138C18.9673 77.5673 20.056 78.15 20.976 78.886C21.896 79.622 22.6473 80.4807 23.23 81.462C23.8127 82.4127 24.2267 83.394 24.472 84.406L18.216 86.292C18.0933 85.8627 17.9093 85.4487 17.664 85.05C17.4187 84.6207 17.112 84.2527 16.744 83.946C16.376 83.6087 15.9313 83.348 15.41 83.164C14.8887 82.98 14.2907 82.888 13.616 82.888ZM27.9472 100V66.696H34.9392V100H27.9472ZM38.5847 93.698C38.5847 92.686 38.7533 91.7813 39.0907 90.984C39.4587 90.1867 39.9493 89.512 40.5627 88.96C41.176 88.3773 41.8813 87.9173 42.6787 87.58C43.5067 87.212 44.396 86.9513 45.3467 86.798L50.7287 85.97C51.342 85.878 51.7713 85.694 52.0167 85.418C52.262 85.142 52.3847 84.8047 52.3847 84.406C52.3847 83.7313 52.0933 83.1487 51.5107 82.658C50.9587 82.1673 50.1307 81.922 49.0267 81.922C47.8 81.922 46.8493 82.2747 46.1747 82.98C45.5307 83.6547 45.178 84.4213 45.1167 85.28L39.0447 84.038C39.106 83.21 39.3513 82.3513 39.7807 81.462C40.21 80.5727 40.8233 79.76 41.6207 79.024C42.4487 78.288 43.476 77.6747 44.7027 77.184C45.9293 76.6933 47.386 76.448 49.0727 76.448C50.9127 76.448 52.4767 76.6933 53.7647 77.184C55.0527 77.644 56.0953 78.288 56.8927 79.116C57.7207 79.9133 58.3033 80.8487 58.6407 81.922C59.0087 82.9953 59.1927 84.1147 59.1927 85.28V96.458C59.1927 97.3473 59.2233 98.1293 59.2847 98.804C59.3767 99.4787 59.438 99.8773 59.4687 100H53.1667C53.136 99.908 53.09 99.6627 53.0287 99.264C52.9673 98.8347 52.9367 98.2213 52.9367 97.424C52.3233 98.4053 51.48 99.1873 50.4067 99.77C49.3333 100.353 48.03 100.644 46.4967 100.644C45.2393 100.644 44.12 100.445 43.1387 100.046C42.1573 99.678 41.3293 99.172 40.6547 98.528C39.98 97.884 39.4587 97.148 39.0907 96.32C38.7533 95.492 38.5847 94.618 38.5847 93.698ZM48.1987 95.584C48.72 95.584 49.226 95.5227 49.7167 95.4C50.238 95.2467 50.6827 95.0013 51.0507 94.664C51.4493 94.296 51.7713 93.8207 52.0167 93.238C52.262 92.6553 52.3847 91.9193 52.3847 91.03V90.018L48.0607 90.708C47.3247 90.8307 46.7113 91.0913 46.2207 91.49C45.73 91.858 45.4847 92.4407 45.4847 93.238C45.4847 93.8513 45.684 94.4033 46.0827 94.894C46.512 95.354 47.2173 95.584 48.1987 95.584ZM68.204 92.456C68.2653 93.2533 68.572 93.974 69.124 94.618C69.7067 95.2313 70.596 95.538 71.792 95.538C72.6813 95.538 73.3407 95.3387 73.77 94.94C74.23 94.5413 74.46 94.0813 74.46 93.56C74.46 93.1307 74.2913 92.7627 73.954 92.456C73.6473 92.1187 73.0647 91.858 72.206 91.674L69.584 91.076C68.3573 90.8 67.3147 90.432 66.456 89.972C65.5973 89.512 64.892 88.9753 64.34 88.362C63.788 87.7487 63.3893 87.074 63.144 86.338C62.8987 85.602 62.776 84.8353 62.776 84.038C62.776 82.9953 62.9907 82.014 63.42 81.094C63.8493 80.174 64.4473 79.3767 65.214 78.702C66.0113 77.9967 66.9467 77.4447 68.02 77.046C69.0933 76.6473 70.274 76.448 71.562 76.448C73.218 76.448 74.6133 76.678 75.748 77.138C76.8827 77.598 77.8027 78.1807 78.508 78.886C79.244 79.5607 79.7807 80.2967 80.118 81.094C80.4553 81.8607 80.6547 82.5813 80.716 83.256L74.92 84.314C74.828 83.5473 74.5213 82.888 74 82.336C73.5093 81.784 72.7273 81.508 71.654 81.508C70.9793 81.508 70.3967 81.692 69.906 82.06C69.4153 82.3973 69.17 82.8727 69.17 83.486C69.17 83.9767 69.3387 84.36 69.676 84.636C70.0133 84.912 70.4427 85.096 70.964 85.188L74 85.786C76.392 86.2767 78.1553 87.1813 79.29 88.5C80.4553 89.788 81.038 91.2753 81.038 92.962C81.038 93.9433 80.854 94.894 80.486 95.814C80.118 96.734 79.5507 97.562 78.784 98.298C78.0173 99.0033 77.0667 99.5707 75.932 100C74.7973 100.46 73.4633 100.69 71.93 100.69C70.1207 100.69 68.6027 100.445 67.376 99.954C66.18 99.4327 65.214 98.804 64.478 98.068C63.742 97.332 63.19 96.55 62.822 95.722C62.4847 94.894 62.3007 94.158 62.27 93.514L68.204 92.456ZM88.7117 92.456C88.7731 93.2533 89.0797 93.974 89.6317 94.618C90.2144 95.2313 91.1037 95.538 92.2997 95.538C93.1891 95.538 93.8484 95.3387 94.2777 94.94C94.7377 94.5413 94.9677 94.0813 94.9677 93.56C94.9677 93.1307 94.7991 92.7627 94.4617 92.456C94.1551 92.1187 93.5724 91.858 92.7137 91.674L90.0917 91.076C88.8651 90.8 87.8224 90.432 86.9637 89.972C86.1051 89.512 85.3997 88.9753 84.8477 88.362C84.2957 87.7487 83.8971 87.074 83.6517 86.338C83.4064 85.602 83.2837 84.8353 83.2837 84.038C83.2837 82.9953 83.4984 82.014 83.9277 81.094C84.3571 80.174 84.9551 79.3767 85.7217 78.702C86.5191 77.9967 87.4544 77.4447 88.5277 77.046C89.6011 76.6473 90.7817 76.448 92.0697 76.448C93.7257 76.448 95.1211 76.678 96.2557 77.138C97.3904 77.598 98.3104 78.1807 99.0157 78.886C99.7517 79.5607 100.288 80.2967 100.626 81.094C100.963 81.8607 101.162 82.5813 101.224 83.256L95.4277 84.314C95.3357 83.5473 95.0291 82.888 94.5077 82.336C94.0171 81.784 93.2351 81.508 92.1617 81.508C91.4871 81.508 90.9044 81.692 90.4137 82.06C89.9231 82.3973 89.6777 82.8727 89.6777 83.486C89.6777 83.9767 89.8464 84.36 90.1837 84.636C90.5211 84.912 90.9504 85.096 91.4717 85.188L94.5077 85.786C96.8997 86.2767 98.6631 87.1813 99.7977 88.5C100.963 89.788 101.546 91.2753 101.546 92.962C101.546 93.9433 101.362 94.894 100.994 95.814C100.626 96.734 100.058 97.562 99.2917 98.298C98.5251 99.0033 97.5744 99.5707 96.4397 100C95.3051 100.46 93.9711 100.69 92.4377 100.69C90.6284 100.69 89.1104 100.445 87.8837 99.954C86.6877 99.4327 85.7217 98.804 84.9857 98.068C84.2497 97.332 83.6977 96.55 83.3297 95.722C82.9924 94.894 82.8084 94.158 82.7777 93.514L88.7117 92.456ZM113.543 77.138H118.005V83.256H113.543V91.812C113.543 92.7627 113.773 93.4067 114.233 93.744C114.693 94.0507 115.307 94.204 116.073 94.204C116.441 94.204 116.779 94.1887 117.085 94.158C117.423 94.0967 117.699 94.0353 117.913 93.974V99.77C117.76 99.8313 117.392 99.954 116.809 100.138C116.227 100.322 115.383 100.414 114.279 100.414C111.887 100.414 110.017 99.77 108.667 98.482C107.318 97.1633 106.643 95.354 106.643 93.054V83.256H102.595V77.138H103.745C104.941 77.138 105.831 76.7853 106.413 76.08C106.996 75.3747 107.287 74.4853 107.287 73.412V70.468H113.543V77.138ZM122.041 100V77.138H129.033V100H122.041ZM121.443 70.146C121.443 69.594 121.55 69.0727 121.765 68.582C121.979 68.0607 122.271 67.616 122.639 67.248C123.007 66.88 123.436 66.5887 123.927 66.374C124.417 66.1593 124.939 66.052 125.491 66.052C126.656 66.052 127.637 66.4507 128.435 67.248C129.232 68.0453 129.631 69.0113 129.631 70.146C129.631 71.2807 129.232 72.2467 128.435 73.044C127.637 73.8413 126.656 74.24 125.491 74.24C124.939 74.24 124.417 74.1327 123.927 73.918C123.436 73.7033 123.007 73.412 122.639 73.044C122.271 72.676 121.979 72.2467 121.765 71.756C121.55 71.2347 121.443 70.698 121.443 70.146ZM134.238 100V77.138H140.908V79.76C141.184 79.2693 141.567 78.8247 142.058 78.426C142.548 77.9967 143.085 77.644 143.668 77.368C144.281 77.0613 144.91 76.8313 145.554 76.678C146.228 76.5247 146.872 76.448 147.486 76.448C149.142 76.448 150.537 76.77 151.672 77.414C152.806 78.0273 153.665 78.9013 154.248 80.036C155.137 78.748 156.149 77.828 157.284 77.276C158.418 76.724 159.768 76.448 161.332 76.448C162.405 76.448 163.448 76.6167 164.46 76.954C165.502 77.2607 166.407 77.7667 167.174 78.472C167.971 79.1773 168.6 80.082 169.06 81.186C169.55 82.29 169.796 83.624 169.796 85.188V100H163.034V86.752C163.034 85.6787 162.742 84.774 162.16 84.038C161.577 83.2713 160.657 82.888 159.4 82.888C158.142 82.888 157.192 83.2867 156.548 84.084C155.904 84.8813 155.582 85.786 155.582 86.798V100H148.682V86.752C148.682 85.6787 148.39 84.774 147.808 84.038C147.225 83.2713 146.29 82.888 145.002 82.888C143.775 82.888 142.84 83.2867 142.196 84.084C141.552 84.8813 141.23 85.8013 141.23 86.844V100H134.238ZM189.225 85.832C189.194 85.4027 189.087 84.958 188.903 84.498C188.749 84.038 188.489 83.624 188.121 83.256C187.753 82.888 187.277 82.5813 186.695 82.336C186.143 82.0907 185.453 81.968 184.625 81.968C183.889 81.968 183.245 82.0907 182.693 82.336C182.141 82.5813 181.665 82.888 181.267 83.256C180.899 83.624 180.607 84.038 180.393 84.498C180.209 84.958 180.101 85.4027 180.071 85.832H189.225ZM195.573 93.422C195.297 94.4033 194.867 95.3387 194.285 96.228C193.702 97.1173 192.966 97.8993 192.077 98.574C191.187 99.218 190.145 99.724 188.949 100.092C187.783 100.491 186.48 100.69 185.039 100.69C183.475 100.69 181.972 100.414 180.531 99.862C179.089 99.31 177.817 98.5127 176.713 97.47C175.609 96.4273 174.735 95.1547 174.091 93.652C173.447 92.1493 173.125 90.432 173.125 88.5C173.125 86.66 173.431 85.004 174.045 83.532C174.689 82.0293 175.532 80.7567 176.575 79.714C177.648 78.6713 178.875 77.874 180.255 77.322C181.635 76.7393 183.061 76.448 184.533 76.448C188.09 76.448 190.881 77.4753 192.905 79.53C194.959 81.5847 195.987 84.4673 195.987 88.178C195.987 88.6687 195.971 89.144 195.941 89.604C195.91 90.0333 195.879 90.2787 195.849 90.34H179.933C179.963 90.984 180.117 91.582 180.393 92.134C180.699 92.6553 181.083 93.1153 181.543 93.514C182.033 93.9127 182.585 94.2193 183.199 94.434C183.812 94.6487 184.456 94.756 185.131 94.756C186.419 94.756 187.415 94.48 188.121 93.928C188.857 93.376 189.393 92.6553 189.731 91.766L195.573 93.422ZM203.604 92.456C203.665 93.2533 203.972 93.974 204.524 94.618C205.107 95.2313 205.996 95.538 207.192 95.538C208.081 95.538 208.741 95.3387 209.17 94.94C209.63 94.5413 209.86 94.0813 209.86 93.56C209.86 93.1307 209.691 92.7627 209.354 92.456C209.047 92.1187 208.465 91.858 207.606 91.674L204.984 91.076C203.757 90.8 202.715 90.432 201.856 89.972C200.997 89.512 200.292 88.9753 199.74 88.362C199.188 87.7487 198.789 87.074 198.544 86.338C198.299 85.602 198.176 84.8353 198.176 84.038C198.176 82.9953 198.391 82.014 198.82 81.094C199.249 80.174 199.847 79.3767 200.614 78.702C201.411 77.9967 202.347 77.4447 203.42 77.046C204.493 76.6473 205.674 76.448 206.962 76.448C208.618 76.448 210.013 76.678 211.148 77.138C212.283 77.598 213.203 78.1807 213.908 78.886C214.644 79.5607 215.181 80.2967 215.518 81.094C215.855 81.8607 216.055 82.5813 216.116 83.256L210.32 84.314C210.228 83.5473 209.921 82.888 209.4 82.336C208.909 81.784 208.127 81.508 207.054 81.508C206.379 81.508 205.797 81.692 205.306 82.06C204.815 82.3973 204.57 82.8727 204.57 83.486C204.57 83.9767 204.739 84.36 205.076 84.636C205.413 84.912 205.843 85.096 206.364 85.188L209.4 85.786C211.792 86.2767 213.555 87.1813 214.69 88.5C215.855 89.788 216.438 91.2753 216.438 92.962C216.438 93.9433 216.254 94.894 215.886 95.814C215.518 96.734 214.951 97.562 214.184 98.298C213.417 99.0033 212.467 99.5707 211.332 100C210.197 100.46 208.863 100.69 207.33 100.69C205.521 100.69 204.003 100.445 202.776 99.954C201.58 99.4327 200.614 98.804 199.878 98.068C199.142 97.332 198.59 96.55 198.222 95.722C197.885 94.894 197.701 94.158 197.67 93.514L203.604 92.456Z" fill="#3D2D6B"/>
</svg>
